{
  "accessors": [
    {
      "bufferView": 2,
      "componentType": 5126,
      "count": 8561,
      "max": [
        3.166295051574707,
        0.6694239974021912,
        7.961324214935303
      ],
      "min": [
        -1.004027009010315,
        -3.8390119075775146,
        -0.0071760001592338085
      ],
      "type": "VEC3"
    },
    {
      "bufferView": 2,
      "byteOffset": 102732,
      "componentType": 5126,
      "count": 8561,
      "max": [
        0.999976634979248,
        0.9998403787612915,
        0.9999821186065674
      ],
      "min": [
        -0.9999586343765259,
        -0.9998273849487305,
        -0.9999024868011475
      ],
      "type": "VEC3"
    },
    {
      "bufferView": 1,
      "componentType": 5126,
      "count": 8561,
      "max": [
        0.9895079731941223,
        0.9884790182113647
      ],
      "min": [
        0.004745999816805124,
        0.008147000335156918
      ],
      "type": "VEC2"
    },
    {
      "bufferView": 0,
      "componentType": 5125,
      "count": 43548,
      "type": "SCALAR"
    },
    {
      "bufferView": 2,
      "byteOffset": 205464,
      "componentType": 5126,
      "count": 32423,
      "max": [
        10.928256034851074,
        11.250333786010742,
        10.189191818237305
      ],
      "min": [
        -10.928256034851074,
        -10.82089614868164,
        0.012759000062942505
      ],
      "type": "VEC3"
    },
    {
      "bufferView": 2,
      "byteOffset": 594540,
      "componentType": 5126,
      "count": 32423,
      "max": [
        1.0,
        1.0,
        0.9999954700469971
      ],
      "min": [
        -1.0,
        -0.9999971389770508,
        -0.9999626278877258
      ],
      "type": "VEC3"
    },
    {
      "bufferView": 1,
      "byteOffset": 68488,
      "componentType": 5126,
      "count": 32423,
      "max": [
        0.9937509894371033,
        0.9924129843711853
      ],
      "min": [
        0.005045999772846699,
        0.005619000177830458
      ],
      "type": "VEC2"
    },
    {
      "bufferView": 0,
      "byteOffset": 174192,
      "componentType": 5125,
      "count": 118722,
      "type": "SCALAR"
    },
    {
      "bufferView": 2,
      "byteOffset": 983616,
      "componentType": 5126,
      "count": 10784,
      "max": [
        17.031227111816406,
        13.391308784484863,
        9.28554630279541
      ],
      "min": [
        -17.031227111816406,
        -12.321237564086914,
        1.113631010055542
      ],
      "type": "VEC3"
    },
    {
      "bufferView": 2,
      "byteOffset": 1113024,
      "componentType": 5126,
      "count": 10784,
      "max": [
        1.0,
        1.0,
        0.9999872446060181
      ],
      "min": [
        -1.0,
        -0.9995608925819397,
        -0.9995495080947876
      ],
      "type": "VEC3"
    },
    {
      "bufferView": 1,
      "byteOffset": 327872,
      "componentType": 5126,
      "count": 10784,
      "max": [
        0.9952660202980042,
        0.9979060292243958
      ],
      "min": [
        0.008883999660611153,
        0.006225000135600567
      ],
      "type": "VEC2"
    },
    {
      "bufferView": 0,
      "byteOffset": 649080,
      "componentType": 5125,
      "count": 55134,
      "type": "SCALAR"
    },
    {
      "bufferView": 2,
      "byteOffset": 1242432,
      "componentType": 5126,
      "count": 315,
      "max": [
        0.11852899938821793,
        -10.227872848510742,
        9.500574111938477
      ],
      "min": [
        0.07462199777364731,
        -10.400923728942871,
        9.037471771240234
      ],
      "type": "VEC3"
    },
    {
      "bufferView": 2,
      "byteOffset": 1246212,
      "componentType": 5126,
      "count": 315,
      "max": [
        0.9999933838844299,
        0.9976868629455566,
        0.9976763725280762
      ],
      "min": [
        -0.003759999992325902,
        -0.9976919889450073,
        -0.9976843595504761
      ],
      "type": "VEC3"
    },
    {
      "bufferView": 1,
      "byteOffset": 414144,
      "componentType": 5126,
      "count": 315,
      "max": [
        0.17219600081443787,
        0.25222301483154297
      ],
      "min": [
        0.13485099375247955,
        0.169405996799469
      ],
      "type": "VEC2"
    },
    {
      "bufferView": 0,
      "byteOffset": 869616,
      "componentType": 5125,
      "count": 1260,
      "type": "SCALAR"
    },
    {
      "bufferView": 2,
      "byteOffset": 1249992,
      "componentType": 5126,
      "count": 65532,
      "max": [
        15.39083480834961,
        10.429643630981445,
        9.611686706542969
      ],
      "min": [
        -15.39084243774414,
        -10.606290817260742,
        1.460068941116333
      ],
      "type": "VEC3"
    },
    {
      "bufferView": 2,
      "byteOffset": 2036376,
      "componentType": 5126,
      "count": 65532,
      "max": [
        1.0,
        0.9999923706054688,
        0.9999906420707703
      ],
      "min": [
        -1.0,
        -0.9999857544898987,
        -0.9999935030937195
      ],
      "type": "VEC3"
    },
    {
      "bufferView": 1,
      "byteOffset": 416664,
      "componentType": 5126,
      "count": 65532,
      "max": [
        0.9127900004386902,
        0.9895700216293335
      ],
      "min": [
        0.008008000440895557,
        0.0048790001310408115
      ],
      "type": "VEC2"
    },
    {
      "bufferView": 0,
      "byteOffset": 874656,
      "componentType": 5125,
      "count": 318543,
      "type": "SCALAR"
    },
    {
      "bufferView": 2,
      "byteOffset": 2822760,
      "componentType": 5126,
      "count": 27753,
      "max": [
        15.410888671875,
        10.710920333862305,
        9.302897453308105
      ],
      "min": [
        -15.410888671875,
        -10.871828079223633,
        1.1247049570083618
      ],
      "type": "VEC3"
    },
    {
      "bufferView": 2,
      "byteOffset": 3155796,
      "componentType": 5126,
      "count": 27753,
      "max": [
        0.9999932646751404,
        0.9999847412109375,
        0.9993106126785278
      ],
      "min": [
        -0.9999932646751404,
        -0.9999847412109375,
        -0.9998010993003845
      ],
      "type": "VEC3"
    },
    {
      "bufferView": 1,
      "byteOffset": 940920,
      "componentType": 5126,
      "count": 27753,
      "max": [
        0.988681972026825,
        0.9846190214157104
      ],
      "min": [
        0.008008000440895557,
        0.005801000166684389
      ],
      "type": "VEC2"
    },
    {
      "bufferView": 0,
      "byteOffset": 2148828,
      "componentType": 5125,
      "count": 129543,
      "type": "SCALAR"
    },
    {
      "bufferView": 2,
      "byteOffset": 3488832,
      "componentType": 5126,
      "count": 2977,
      "max": [
        1.1632399559020996,
        -0.786545991897583,
        6.871006965637207
      ],
      "min": [
        -1.1632399559020996,
        -4.558072090148926,
        3.511820077896118
      ],
      "type": "VEC3"
    },
    {
      "bufferView": 2,
      "byteOffset": 3524556,
      "componentType": 5126,
      "count": 2977,
      "max": [
        1.0,
        0.9999408721923828,
        0.9956408739089966
      ],
      "min": [
        -1.0,
        -0.9903037548065186,
        -0.9995899796485901
      ],
      "type": "VEC3"
    },
    {
      "bufferView": 1,
      "byteOffset": 1162944,
      "componentType": 5126,
      "count": 2977,
      "max": [
        0.9843590259552002,
        0.9859769940376282
      ],
      "min": [
        0.026897000148892403,
        0.014468999579548836
      ],
      "type": "VEC2"
    },
    {
      "bufferView": 0,
      "byteOffset": 2667000,
      "componentType": 5125,
      "count": 12156,
      "type": "SCALAR"
    },
    {
      "bufferView": 2,
      "byteOffset": 3560280,
      "componentType": 5126,
      "count": 10867,
      "max": [
        10.942392349243164,
        -0.7498400211334229,
        11.0295991897583
      ],
      "min": [
        -10.942392349243164,
        -12.864526748657227,
        -0.0024339999072253704
      ],
      "type": "VEC3"
    },
    {
      "bufferView": 2,
      "byteOffset": 3690684,
      "componentType": 5126,
      "count": 10867,
      "max": [
        1.0,
        0.9976867437362671,
        0.99981689453125
      ],
      "min": [
        -1.0,
        -0.9999659061431885,
        -0.9998035430908203
      ],
      "type": "VEC3"
    },
    {
      "bufferView": 1,
      "byteOffset": 1186760,
      "componentType": 5126,
      "count": 10867,
      "max": [
        0.9862110018730164,
        0.9885420203208923
      ],
      "min": [
        0.008814999833703041,
        0.014051999896764755
      ],
      "type": "VEC2"
    },
    {
      "bufferView": 0,
      "byteOffset": 2715624,
      "componentType": 5125,
      "count": 54894,
      "type": "SCALAR"
    },
    {
      "bufferView": 2,
      "byteOffset": 3821088,
      "componentType": 5126,
      "count": 2420,
      "max": [
        0.8975120186805725,
        -3.1683459281921387,
        7.8927459716796875
      ],
      "min": [
        -0.8975110054016113,
        -4.721944808959961,
        7.08502721786499
      ],
      "type": "VEC3"
    },
    {
      "bufferView": 2,
      "byteOffset": 3850128,
      "componentType": 5126,
      "count": 2420,
      "max": [
        0.9981005191802979,
        0.9976532459259033,
        0.9962657690048218
      ],
      "min": [
        -0.9981005191802979,
        -0.9976586699485779,
        -0.9962642192840576
      ],
      "type": "VEC3"
    },
    {
      "bufferView": 1,
      "byteOffset": 1273696,
      "componentType": 5126,
      "count": 2420,
      "max": [
        0.7662780284881592,
        0.49988898634910583
      ],
      "min": [
        0.7250840067863464,
        0.4359950125217438
      ],
      "type": "VEC2"
    },
    {
      "bufferView": 0,
      "byteOffset": 2935200,
      "componentType": 5125,
      "count": 3960,
      "type": "SCALAR"
    },
    {
      "bufferView": 2,
      "byteOffset": 3879168,
      "componentType": 5126,
      "count": 26293,
      "max": [
        0.95455002784729,
        -3.1779630184173584,
        8.83934211730957
      ],
      "min": [
        -0.9736059904098511,
        -8.802231788635254,
        7.057684898376465
      ],
      "type": "VEC3"
    },
    {
      "bufferView": 2,
      "byteOffset": 4194684,
      "componentType": 5126,
      "count": 26293,
      "max": [
        0.9999553561210632,
        0.999970018863678,
        0.9995244741439819
      ],
      "min": [
        -0.9999553561210632,
        -0.9996213316917419,
        -0.999790370464325
      ],
      "type": "VEC3"
    },
    {
      "bufferView": 1,
      "byteOffset": 1293056,
      "componentType": 5126,
      "count": 26293,
      "max": [
        0.9380649924278259,
        0.6979489922523499
      ],
      "min": [
        0.46226799488067627,
        0.00317499996162951
      ],
      "type": "VEC2"
    },
    {
      "bufferView": 0,
      "byteOffset": 2951040,
      "componentType": 5125,
      "count": 130692,
      "type": "SCALAR"
    },
    {
      "bufferView": 2,
      "byteOffset": 4510200,
      "componentType": 5126,
      "count": 18,
      "max": [
        1.0644639730453491,
        5.290840148925781,
        4.264750003814697
      ],
      "min": [
        -1.0644639730453491,
        2.5467729568481445,
        2.8668971061706543
      ],
      "type": "VEC3"
    },
    {
      "bufferView": 2,
      "byteOffset": 4510416,
      "componentType": 5126,
      "count": 18,
      "max": [
        0.9932233691215515,
        0.15720506012439728,
        0.1807660460472107
      ],
      "min": [
        -0.9932233691215515,
        0.11486704647541046,
        0.017691005021333694
      ],
      "type": "VEC3"
    },
    {
      "bufferView": 1,
      "byteOffset": 1503400,
      "componentType": 5126,
      "count": 18,
      "max": [
        0.9975320100784302,
        0.052225999534130096
      ],
      "min": [
        0.8264520168304443,
        0.00585100008174777
      ],
      "type": "VEC2"
    },
    {
      "bufferView": 0,
      "byteOffset": 3473808,
      "componentType": 5125,
      "count": 48,
      "type": "SCALAR"
    },
    {
      "bufferView": 2,
      "byteOffset": 4510632,
      "componentType": 5126,
      "count": 387,
      "max": [
        22.943586349487305,
        23.58600425720215,
        0.06189899891614914
      ],
      "min": [
        -22.943593978881836,
        -22.301179885864258,
        -6.012271881103516
      ],
      "type": "VEC3"
    },
    {
      "bufferView": 2,
      "byteOffset": 4515276,
      "componentType": 5126,
      "count": 387,
      "max": [
        1.0,
        1.0,
        1.0
      ],
      "min": [
        -1.0,
        -1.0,
        -1.0
      ],
      "type": "VEC3"
    },
    {
      "bufferView": 1,
      "byteOffset": 1503544,
      "componentType": 5126,
      "count": 387,
      "max": [
        0.9891539812088013,
        0.9675869941711426
      ],
      "min": [
        0.022978000342845917,
        0.03308400139212608
      ],
      "type": "VEC2"
    },
    {
      "bufferView": 0,
      "byteOffset": 3474000,
      "componentType": 5125,
      "count": 1860,
      "type": "SCALAR"
    }
  ],
  "asset": {
    "extras": {
      "author": "腱鞘炎の人 (https://sketchfab.com/Kensyouen)",
      "license": "CC-BY-4.0 (http://creativecommons.org/licenses/by/4.0/)",
      "source": "https://sketchfab.com/3d-models/airplane-420dd045df2843688b0fd07e7e29156e",
      "title": "Airplane"
    },
    "generator": "Sketchfab-12.67.0",
    "version": "2.0"
  },
  "bufferViews": [
    {
      "buffer": 0,
      "byteLength": 3481440,
      "name": "floatBufferViews",
      "target": 34963
    },
    {
      "buffer": 0,
      "byteLength": 1506640,
      "byteOffset": 3481440,
      "byteStride": 8,
      "name": "floatBufferViews",
      "target": 34962
    },
    {
      "buffer": 0,
      "byteLength": 4519920,
      "byteOffset": 4988080,
      "byteStride": 12,
      "name": "floatBufferViews",
      "target": 34962
    }
  ],
  "buffers": [
    {
      "byteLength": 9508000,
      "uri": "scene.bin"
    }
  ],
  "images": [
    {
      "uri": "textures/airplanerampShader11SG_baseColor.png"
    },
    {
      "uri": "textures/airplanerampShader1SG_baseColor.png"
    },
    {
      "uri": "textures/airplanerampShader2SG_baseColor.png"
    },
    {
      "uri": "textures/airplanerampShader4SG_baseColor.png"
    },
    {
      "uri": "textures/airplanerampShader5SG_baseColor.png"
    },
    {
      "uri": "textures/airplanerampShader6SG_baseColor.png"
    },
    {
      "uri": "textures/dodaiinitialShadingGroup_baseColor.png"
    }
  ],
  "materials": [
    {
      "doubleSided": true,
      "name": "airplanerampShader11SG",
      "pbrMetallicRoughness": {
        "baseColorTexture": {
          "index": 0
        },
        "metallicFactor": 0.0
      }
    },
    {
      "doubleSided": true,
      "name": "airplanerampShader1SG",
      "pbrMetallicRoughness": {
        "baseColorTexture": {
          "index": 1
        },
        "metallicFactor": 0.0
      }
    },
    {
      "doubleSided": true,
      "name": "airplanerampShader2SG",
      "pbrMetallicRoughness": {
        "baseColorTexture": {
          "index": 2
        },
        "metallicFactor": 0.0
      }
    },
    {
      "doubleSided": true,
      "name": "airplanerampShader4SG",
      "pbrMetallicRoughness": {
        "baseColorTexture": {
          "index": 3
        },
        "metallicFactor": 0.0
      }
    },
    {
      "doubleSided": true,
      "name": "airplanerampShader5SG",
      "pbrMetallicRoughness": {
        "baseColorTexture": {
          "index": 4
        },
        "metallicFactor": 0.0
      }
    },
    {
      "doubleSided": true,
      "name": "airplanerampShader6SG",
      "pbrMetallicRoughness": {
        "baseColorTexture": {
          "index": 5
        },
        "metallicFactor": 0.0
      }
    },
    {
      "doubleSided": true,
      "name": "airplanerampShader7SG",
      "pbrMetallicRoughness": {
        "baseColorTexture": {
          "index": 3
        },
        "metallicFactor": 0.0
      }
    },
    {
      "alphaMode": "BLEND",
      "doubleSided": true,
      "name": "airplanerampShader8SG",
      "pbrMetallicRoughness": {
        "baseColorFactor": [
          0.0,
          0.0,
          0.0,
          0.0
        ],
        "metallicFactor": 0.0
      }
    },
    {
      "doubleSided": true,
      "name": "dodaiinitialShadingGroup",
      "pbrMetallicRoughness": {
        "baseColorTexture": {
          "index": 6
        },
        "metallicFactor": 0.0
      }
    }
  ],
  "meshes": [
    {
      "name": "Object_0",
      "primitives": [
        {
          "attributes": {
            "NORMAL": 1,
            "POSITION": 0,
            "TEXCOORD_0": 2
          },
          "indices": 3,
          "material": 0,
          "mode": 4
        }
      ]
    },
    {
      "name": "Object_1",
      "primitives": [
        {
          "attributes": {
            "NORMAL": 5,
            "POSITION": 4,
            "TEXCOORD_0": 6
          },
          "indices": 7,
          "material": 1,
          "mode": 4
        }
      ]
    },
    {
      "name": "Object_2",
      "primitives": [
        {
          "attributes": {
            "NORMAL": 9,
            "POSITION": 8,
            "TEXCOORD_0": 10
          },
          "indices": 11,
          "material": 2,
          "mode": 4
        }
      ]
    },
    {
      "name": "Object_3",
      "primitives": [
        {
          "attributes": {
            "NORMAL": 13,
            "POSITION": 12,
            "TEXCOORD_0": 14
          },
          "indices": 15,
          "material": 3,
          "mode": 4
        }
      ]
    },
    {
      "name": "Object_4",
      "primitives": [
        {
          "attributes": {
            "NORMAL": 17,
            "POSITION": 16,
            "TEXCOORD_0": 18
          },
          "indices": 19,
          "material": 3,
          "mode": 4
        }
      ]
    },
    {
      "name": "Object_5",
      "primitives": [
        {
          "attributes": {
            "NORMAL": 21,
            "POSITION": 20,
            "TEXCOORD_0": 22
          },
          "indices": 23,
          "material": 3,
          "mode": 4
        }
      ]
    },
    {
      "name": "Object_6",
      "primitives": [
        {
          "attributes": {
            "NORMAL": 25,
            "POSITION": 24,
            "TEXCOORD_0": 26
          },
          "indices": 27,
          "material": 4,
          "mode": 4
        }
      ]
    },
    {
      "name": "Object_7",
      "primitives": [
        {
          "attributes": {
            "NORMAL": 29,
            "POSITION": 28,
            "TEXCOORD_0": 30
          },
          "indices": 31,
          "material": 5,
          "mode": 4
        }
      ]
    },
    {
      "name": "Object_8",
      "primitives": [
        {
          "attributes": {
            "NORMAL": 33,
            "POSITION": 32,
            "TEXCOORD_0": 34
          },
          "indices": 35,
          "material": 6,
          "mode": 4
        }
      ]
    },
    {
      "name": "Object_9",
      "primitives": [
        {
          "attributes": {
            "NORMAL": 37,
            "POSITION": 36,
            "TEXCOORD_0": 38
          },
          "indices": 39,
          "material": 6,
          "mode": 4
        }
      ]
    },
    {
      "name": "Object_10",
      "primitives": [
        {
          "attributes": {
            "NORMAL": 41,
            "POSITION": 40,
            "TEXCOORD_0": 42
          },
          "indices": 43,
          "material": 7,
          "mode": 4
        }
      ]
    },
    {
      "name": "Object_11",
      "primitives": [
        {
          "attributes": {
            "NORMAL": 45,
            "POSITION": 44,
            "TEXCOORD_0": 46
          },
          "indices": 47,
          "material": 8,
          "mode": 4
        }
      ]
    }
  ],
  "nodes": [
    {
      "children": [
        1
      ],
      "matrix": [
        1.0,
        0.0,
        0.0,
        0.0,
        0.0,
        2.220446049250313e-16,
        -1.0,
        0.0,
        0.0,
        1.0,
        2.220446049250313e-16,
        0.0,
        0.0,
        0.0,
        0.0,
        1.0
      ],
      "name": "Sketchfab_model"
    },
    {
      "children": [
        2,
        3,
        4,
        5,
        6,
        7,
        8,
        9,
        10,
        11,
        12,
        13
      ],
      "name": "obj.obj.cleaner.materialmerger.gles"
    },
    {
      "mesh": 0,
      "name": "Object_2"
    },
    {
      "mesh": 1,
      "name": "Object_3"
    },
    {
      "mesh": 2,
      "name": "Object_4"
    },
    {
      "mesh": 3,
      "name": "Object_5"
    },
    {
      "mesh": 4,
      "name": "Object_6"
    },
    {
      "mesh": 5,
      "name": "Object_7"
    },
    {
      "mesh": 6,
      "name": "Object_8"
    },
    {
      "mesh": 7,
      "name": "Object_9"
    },
    {
      "mesh": 8,
      "name": "Object_10"
    },
    {
      "mesh": 9,
      "name": "Object_11"
    },
    {
      "mesh": 10,
      "name": "Object_12"
    },
    {
      "mesh": 11,
      "name": "Object_13"
    }
  ],
  "samplers": [
    {
      "magFilter": 9729,
      "minFilter": 9987,
      "wrapS": 10497,
      "wrapT": 10497
    }
  ],
  "scene": 0,
  "scenes": [
    {
      "name": "Sketchfab_Scene",
      "nodes": [
        0
      ]
    }
  ],
  "textures": [
    {
      "sampler": 0,
      "source": 0
    },
    {
      "sampler": 0,
      "source": 1
    },
    {
      "sampler": 0,
      "source": 2
    },
    {
      "sampler": 0,
      "source": 3
    },
    {
      "sampler": 0,
      "source": 4
    },
    {
      "sampler": 0,
      "source": 5
    },
    {
      "sampler": 0,
      "source": 6
    }
  ]
}
