{
  "accessors": [
    {
      "bufferView": 2,
      "componentType": 5126,
      "count": 4562,
      "max": [
        875.7535400390625,
        504.2366027832031,
        960.6961059570313
      ],
      "min": [
        -748.84814453125,
        -530.570556640625,
        901.35107421875
      ],
      "type": "VEC3"
    },
    {
      "bufferView": 2,
      "byteOffset": 54744,
      "componentType": 5126,
      "count": 4562,
      "max": [
        0.9996896982192993,
        0.9945165514945984,
        1.0
      ],
      "min": [
        -0.9982959628105164,
        -0.9947303533554077,
        -0.9781476855278015
      ],
      "type": "VEC3"
    },
    {
      "bufferView": 1,
      "componentType": 5126,
      "count": 4562,
      "max": [
        0.0,
        0.0
      ],
      "min": [
        0.0,
        0.0
      ],
      "type": "VEC2"
    },
    {
      "bufferView": 0,
      "componentType": 5125,
      "count": 27360,
      "type": "SCALAR"
    },
    {
      "bufferView": 2,
      "byteOffset": 109488,
      "componentType": 5126,
      "count": 2417,
      "max": [
        380.2991027832031,
        352.6014404296875,
        972.3160400390625
      ],
      "min": [
        -119.6657943725586,
        -284.5454406738281,
        923.8511962890625
      ],
      "type": "VEC3"
    },
    {
      "bufferView": 2,
      "byteOffset": 138492,
      "componentType": 5126,
      "count": 2417,
      "max": [
        0.9944970607757568,
        0.9948086142539978,
        1.0
      ],
      "min": [
        -0.9944970607757568,
        -0.9978755712509155,
        -0.9781476855278015
      ],
      "type": "VEC3"
    },
    {
      "bufferView": 1,
      "byteOffset": 36496,
      "componentType": 5126,
      "count": 2417,
      "max": [
        0.0,
        0.0
      ],
      "min": [
        0.0,
        0.0
      ],
      "type": "VEC2"
    },
    {
      "bufferView": 0,
      "byteOffset": 109440,
      "componentType": 5125,
      "count": 14490,
      "type": "SCALAR"
    },
    {
      "bufferView": 2,
      "byteOffset": 167496,
      "componentType": 5126,
      "count": 432,
      "max": [
        71.81999969482422,
        44.62416076660156,
        0.0
      ],
      "min": [
        0.0,
        0.0,
        -15.0
      ],
      "type": "VEC3"
    },
    {
      "bufferView": 2,
      "byteOffset": 172680,
      "componentType": 5126,
      "count": 432,
      "max": [
        0.9994969964027405,
        0.9999449253082275,
        1.0
      ],
      "min": [
        -0.9972903728485107,
        -0.9999135136604309,
        -1.0
      ],
      "type": "VEC3"
    },
    {
      "bufferView": 1,
      "byteOffset": 55832,
      "componentType": 5126,
      "count": 432,
      "max": [
        0.9999321699142456,
        0.9425945281982422
      ],
      "min": [
        0.0001417696475982666,
        7.928535342216492e-05
      ],
      "type": "VEC2"
    },
    {
      "bufferView": 1,
      "byteOffset": 59288,
      "componentType": 5126,
      "count": 432,
      "max": [
        0.9999321699142456,
        0.9425945281982422
      ],
      "min": [
        0.0001417696475982666,
        7.928535342216492e-05
      ],
      "type": "VEC2"
    },
    {
      "bufferView": 1,
      "byteOffset": 62744,
      "componentType": 5126,
      "count": 432,
      "max": [
        0.9999321699142456,
        0.9425945281982422
      ],
      "min": [
        0.0001417696475982666,
        7.928535342216492e-05
      ],
      "type": "VEC2"
    },
    {
      "bufferView": 0,
      "byteOffset": 167400,
      "componentType": 5125,
      "count": 1140,
      "type": "SCALAR"
    }
  ],
  "asset": {
    "extras": {
      "author": "martaveusjackson14 (https://sketchfab.com/martaveusjackson14)",
      "license": "CC-BY-4.0 (http://creativecommons.org/licenses/by/4.0/)",
      "source": "https://sketchfab.com/3d-models/boomerang-from-cartoon-network-logo-3d-model-55469ebff6734af3987f38cd6e578c0e",
      "title": "Boomerang From Cartoon Network Logo (3D Model)"
    },
    "generator": "Sketchfab-14.13.0",
    "version": "2.0"
  },
  "bufferViews": [
    {
      "buffer": 0,
      "byteLength": 171960,
      "name": "floatBufferViews",
      "target": 34963
    },
    {
      "buffer": 0,
      "byteLength": 66200,
      "byteOffset": 171960,
      "byteStride": 8,
      "name": "floatBufferViews",
      "target": 34962
    },
    {
      "buffer": 0,
      "byteLength": 177864,
      "byteOffset": 238160,
      "byteStride": 12,
      "name": "floatBufferViews",
      "target": 34962
    }
  ],
  "buffers": [
    {
      "byteLength": 416024,
      "uri": "scene.bin"
    }
  ],
  "extensionsRequired": [
    "KHR_materials_pbrSpecularGlossiness"
  ],
  "extensionsUsed": [
    "KHR_materials_pbrSpecularGlossiness"
  ],
  "images": [
    {
      "uri": "textures/material_diffuse.png"
    },
    {
      "uri": "textures/material_specularGlossiness.png"
    },
    {
      "uri": "textures/material_1_diffuse.png"
    },
    {
      "uri": "textures/material_2_diffuse.png"
    },
    {
      "uri": "textures/material_2_specularGlossiness.png"
    }
  ],
  "materials": [
    {
      "doubleSided": true,
      "extensions": {
        "KHR_materials_pbrSpecularGlossiness": {
          "diffuseFactor": [
            1.0,
            1.0,
            1.0,
            1.0
          ],
          "diffuseTexture": {
            "index": 0
          },
          "glossinessFactor": 1.0,
          "specularFactor": [
            1.0,
            1.0,
            1.0
          ],
          "specularGlossinessTexture": {
            "index": 1,
            "texCoord": 1
          }
        }
      },
      "name": "material"
    },
    {
      "doubleSided": true,
      "extensions": {
        "KHR_materials_pbrSpecularGlossiness": {
          "diffuseFactor": [
            1.0,
            1.0,
            1.0,
            1.0
          ],
          "diffuseTexture": {
            "index": 2
          },
          "glossinessFactor": 1.0,
          "specularFactor": [
            1.0,
            1.0,
            1.0
          ],
          "specularGlossinessTexture": {
            "index": 1,
            "texCoord": 1
          }
        }
      },
      "name": "material_1"
    },
    {
      "doubleSided": true,
      "extensions": {
        "KHR_materials_pbrSpecularGlossiness": {
          "diffuseFactor": [
            1.0,
            1.0,
            1.0,
            1.0
          ],
          "diffuseTexture": {
            "index": 3
          },
          "glossinessFactor": 1.0,
          "specularFactor": [
            1.0,
            1.0,
            1.0
          ],
          "specularGlossinessTexture": {
            "index": 4
          }
        }
      },
      "name": "material_2"
    }
  ],
  "meshes": [
    {
      "name": "Object_0",
      "primitives": [
        {
          "attributes": {
            "NORMAL": 1,
            "POSITION": 0,
            "TEXCOORD_0": 2,
            "TEXCOORD_1": 2
          },
          "indices": 3,
          "material": 0,
          "mode": 4
        }
      ]
    },
    {
      "name": "Object_1",
      "primitives": [
        {
          "attributes": {
            "NORMAL": 5,
            "POSITION": 4,
            "TEXCOORD_0": 6,
            "TEXCOORD_1": 6
          },
          "indices": 7,
          "material": 1,
          "mode": 4
        }
      ]
    },
    {
      "name": "Object_2",
      "primitives": [
        {
          "attributes": {
            "NORMAL": 9,
            "POSITION": 8,
            "TEXCOORD_0": 10,
            "TEXCOORD_1": 11,
            "TEXCOORD_2": 12
          },
          "indices": 13,
          "material": 2,
          "mode": 4
        }
      ]
    }
  ],
  "nodes": [
    {
      "children": [
        1
      ],
      "matrix": [
        1.0,
        0.0,
        0.0,
        0.0,
        0.0,
        2.220446049250313e-16,
        -1.0,
        0.0,
        0.0,
        1.0,
        2.220446049250313e-16,
        0.0,
        0.0,
        0.0,
        0.0,
        1.0
      ],
      "name": "Sketchfab_model"
    },
    {
      "children": [
        2
      ],
      "name": "root"
    },
    {
      "children": [
        3
      ],
      "matrix": [
        1.0,
        0.0,
        0.0,
        0.0,
        0.0,
        2.220446049250313e-16,
        1.0,
        0.0,
        0.0,
        -1.0,
        2.220446049250313e-16,
        0.0,
        0.0,
        0.0,
        0.0,
        1.0
      ],
      "name": "GLTF_SceneRootNode"
    },
    {
      "children": [
        4,
        6,
        8
      ],
      "name": "root_3"
    },
    {
      "children": [
        5
      ],
      "matrix": [
        0.0010095626472944356,
        -0.00011162251882924478,
        -3.591390327158813e-05,
        0.0,
        0.00011862097965601149,
        0.0010742174779553074,
        -4.219825743856328e-06,
        0.0,
        3.8270444068437625e-05,
        3.5339545436591866e-11,
        0.0010758063970379434,
        0.0,
        -0.08540137112140656,
        0.07316893339157104,
        0.04751209914684296,
        1.0
      ],
      "name": "_0"
    },
    {
      "mesh": 0,
      "name": "Object_5"
    },
    {
      "children": [
        7
      ],
      "matrix": [
        0.0010291563501235645,
        -0.00011378879336708931,
        -3.661100283419488e-05,
        0.0,
        0.0001209229143974405,
        0.0010950645797021784,
        -4.3017656874583445e-06,
        0.0,
        3.9013285669221406e-05,
        7.7209846036593e-11,
        0.001096685662555728,
        0.0,
        -0.09074036031961441,
        0.07608912885189056,
        0.026187673211097717,
        1.0
      ],
      "name": "_1"
    },
    {
      "mesh": 1,
      "name": "Object_7"
    },
    {
      "children": [
        9
      ],
      "matrix": [
        0.022484385720326065,
        -0.002485987198329826,
        -0.000799855352724883,
        0.0,
        0.002638902049454035,
        0.023924150860764958,
        -0.0001763333985441275,
        0.0,
        0.000861341894868017,
        8.158356921273543e-05,
        0.02395924166456596,
        0.0,
        0.009255493991076946,
        0.048098333179950714,
        0.8843867182731628,
        1.0
      ],
      "name": "node_id36_4"
    },
    {
      "children": [
        10
      ],
      "matrix": [
        1.0,
        0.0,
        0.0,
        0.0,
        0.0,
        1.0,
        0.0,
        0.0,
        0.0,
        0.0,
        1.0,
        0.0,
        -35.910003662109375,
        -22.31208038330078,
        7.5,
        1.0
      ],
      "name": "_2"
    },
    {
      "mesh": 2,
      "name": "Object_10"
    }
  ],
  "samplers": [
    {
      "magFilter": 9729,
      "minFilter": 9987,
      "wrapS": 10497,
      "wrapT": 10497
    }
  ],
  "scene": 0,
  "scenes": [
    {
      "name": "Sketchfab_Scene",
      "nodes": [
        0
      ]
    }
  ],
  "textures": [
    {
      "sampler": 0,
      "source": 0
    },
    {
      "sampler": 0,
      "source": 1
    },
    {
      "sampler": 0,
      "source": 2
    },
    {
      "sampler": 0,
      "source": 3
    },
    {
      "sampler": 0,
      "source": 4
    }
  ]
}
