{
  "accessors": [
    {
      "bufferView": 2,
      "componentType": 5126,
      "count": 10028,
      "max": [
        3.8049306869506836,
        1.003482699394226,
        7.791286468505859
      ],
      "min": [
        -3.8049306869506836,
        -0.9316855669021606,
        -1.1980855464935303
      ],
      "type": "VEC3"
    },
    {
      "bufferView": 2,
      "byteOffset": 120336,
      "componentType": 5126,
      "count": 10028,
      "max": [
        0.9999830722808838,
        1.0,
        0.9999998807907104
      ],
      "min": [
        -0.9999830722808838,
        -0.9999929666519165,
        -0.9996465444564819
      ],
      "type": "VEC3"
    },
    {
      "bufferView": 3,
      "componentType": 5126,
      "count": 10028,
      "max": [
        0.9958447813987732,
        0.9999936819076538,
        0.9999996423721313,
        1.0
      ],
      "min": [
        -0.9983559846878052,
        -0.99996417760849,
        -0.9999476671218872,
        1.0
      ],
      "type": "VEC4"
    },
    {
      "bufferView": 1,
      "componentType": 5126,
      "count": 10028,
      "max": [
        0.9674068689346313,
        0.9997979402542114
      ],
      "min": [
        0.00020207607303746045,
        0.00020207607303746045
      ],
      "type": "VEC2"
    },
    {
      "bufferView": 0,
      "componentType": 5125,
      "count": 56064,
      "type": "SCALAR"
    },
    {
      "bufferView": 2,
      "byteOffset": 240672,
      "componentType": 5126,
      "count": 1748,
      "max": [
        0.9684263467788696,
        73.21419525146484,
        1.0597747564315796
      ],
      "min": [
        -0.9684263467788696,
        13.006780624389648,
        -1.0597747564315796
      ],
      "type": "VEC3"
    },
    {
      "bufferView": 2,
      "byteOffset": 261648,
      "componentType": 5126,
      "count": 1748,
      "max": [
        0.9999991655349731,
        0.9999462366104126,
        0.974254846572876
      ],
      "min": [
        -0.9999991655349731,
        -0.9997586011886597,
        -0.9742546081542969
      ],
      "type": "VEC3"
    },
    {
      "bufferView": 1,
      "byteOffset": 80224,
      "componentType": 5126,
      "count": 1748,
      "max": [
        0.870997428894043,
        0.9960536360740662
      ],
      "min": [
        0.060644522309303284,
        0.0
      ],
      "type": "VEC2"
    },
    {
      "bufferView": 0,
      "byteOffset": 224256,
      "componentType": 5125,
      "count": 4254,
      "type": "SCALAR"
    }
  ],
  "asset": {
    "extras": {
      "author": "Kenkento3D (https://sketchfab.com/kenkento.zapater)",
      "license": "CC-BY-4.0 (http://creativecommons.org/licenses/by/4.0/)",
      "source": "https://sketchfab.com/3d-models/futuristic-airplane-concept-5dc03b5bd5104a9d950ea26a520028dd",
      "title": "Futuristic airplane (concept)"
    },
    "generator": "Sketchfab-15.22.0",
    "version": "2.0"
  },
  "bufferViews": [
    {
      "buffer": 0,
      "byteLength": 241272,
      "name": "floatBufferViews",
      "target": 34963
    },
    {
      "buffer": 0,
      "byteLength": 94208,
      "byteOffset": 241272,
      "byteStride": 8,
      "name": "floatBufferViews",
      "target": 34962
    },
    {
      "buffer": 0,
      "byteLength": 282624,
      "byteOffset": 335480,
      "byteStride": 12,
      "name": "floatBufferViews",
      "target": 34962
    },
    {
      "buffer": 0,
      "byteLength": 160448,
      "byteOffset": 618104,
      "byteStride": 16,
      "name": "floatBufferViews",
      "target": 34962
    }
  ],
  "buffers": [
    {
      "byteLength": 778552,
      "uri": "scene.bin"
    }
  ],
  "images": [
    {
      "uri": "textures/Material.001_baseColor.png"
    },
    {
      "uri": "textures/Material.001_metallicRoughness.png"
    },
    {
      "uri": "textures/Material.001_normal.png"
    }
  ],
  "materials": [
    {
      "doubleSided": true,
      "name": "Material.001",
      "normalTexture": {
        "index": 2
      },
      "pbrMetallicRoughness": {
        "baseColorTexture": {
          "index": 0
        },
        "metallicRoughnessTexture": {
          "index": 1
        }
      }
    },
    {
      "doubleSided": true,
      "name": "Material",
      "pbrMetallicRoughness": {
        "baseColorFactor": [
          0.0,
          0.0,
          0.0,
          1.0
        ],
        "metallicFactor": 0.0,
        "roughnessFactor": 0.5
      }
    }
  ],
  "meshes": [
    {
      "name": "Object_0",
      "primitives": [
        {
          "attributes": {
            "NORMAL": 1,
            "POSITION": 0,
            "TANGENT": 2,
            "TEXCOORD_0": 3
          },
          "indices": 4,
          "material": 0,
          "mode": 4
        }
      ]
    },
    {
      "name": "Object_1",
      "primitives": [
        {
          "attributes": {
            "NORMAL": 6,
            "POSITION": 5,
            "TEXCOORD_0": 7
          },
          "indices": 8,
          "material": 1,
          "mode": 4
        }
      ]
    }
  ],
  "nodes": [
    {
      "children": [
        1
      ],
      "matrix": [
        1.0,
        0.0,
        0.0,
        0.0,
        0.0,
        2.220446049250313e-16,
        -1.0,
        0.0,
        0.0,
        1.0,
        2.220446049250313e-16,
        0.0,
        0.0,
        0.0,
        0.0,
        1.0
      ],
      "name": "Sketchfab_model"
    },
    {
      "children": [
        2
      ],
      "name": "root"
    },
    {
      "children": [
        3,
        5
      ],
      "matrix": [
        1.0,
        0.0,
        0.0,
        0.0,
        0.0,
        2.220446049250313e-16,
        1.0,
        0.0,
        0.0,
        -1.0,
        2.220446049250313e-16,
        0.0,
        0.0,
        0.0,
        0.0,
        1.0
      ],
      "name": "GLTF_SceneRootNode"
    },
    {
      "children": [
        4
      ],
      "name": "Plane_0"
    },
    {
      "mesh": 0,
      "name": "Object_4"
    },
    {
      "children": [
        6
      ],
      "matrix": [
        0.3444332182407379,
        0.0,
        0.0,
        0.0,
        0.0,
        0.004484625533223152,
        0.0,
        0.0,
        0.0,
        0.0,
        0.012349795550107956,
        0.0,
        0.0,
        -0.41178780794143677,
        7.735784530639648,
        1.0
      ],
      "name": "Cube_1"
    },
    {
      "mesh": 1,
      "name": "Object_6"
    }
  ],
  "samplers": [
    {
      "magFilter": 9729,
      "minFilter": 9987,
      "wrapS": 10497,
      "wrapT": 10497
    }
  ],
  "scene": 0,
  "scenes": [
    {
      "name": "Sketchfab_Scene",
      "nodes": [
        0
      ]
    }
  ],
  "textures": [
    {
      "sampler": 0,
      "source": 0
    },
    {
      "sampler": 0,
      "source": 1
    },
    {
      "sampler": 0,
      "source": 2
    }
  ]
}
