{
  "accessors": [
    {
      "bufferView": 2,
      "componentType": 5126,
      "count": 5225,
      "max": [
        0.07992000132799149,
        0.08926799893379211,
        0.04396900162100792
      ],
      "min": [
        -0.11430999636650085,
        -0.13309399783611298,
        0.0017610000213608146
      ],
      "type": "VEC3"
    },
    {
      "bufferView": 2,
      "byteOffset": 62700,
      "componentType": 5126,
      "count": 5225,
      "max": [
        1.0,
        1.0,
        1.0
      ],
      "min": [
        -1.0,
        -1.0,
        -1.0
      ],
      "type": "VEC3"
    },
    {
      "bufferView": 1,
      "componentType": 5126,
      "count": 5225,
      "max": [
        0.9990180134773254,
        0.9980469942092896
      ],
      "min": [
        0.02294900082051754,
        0.0005070000188425183
      ],
      "type": "VEC2"
    },
    {
      "bufferView": 0,
      "componentType": 5125,
      "count": 9105,
      "type": "SCALAR"
    },
    {
      "bufferView": 2,
      "byteOffset": 125400,
      "componentType": 5126,
      "count": 4547,
      "max": [
        0.06518899649381638,
        0.08046100288629532,
        0.04868600144982338
      ],
      "min": [
        -0.06377699971199036,
        -0.13309399783611298,
        0.0017399999778717756
      ],
      "type": "VEC3"
    },
    {
      "bufferView": 2,
      "byteOffset": 179964,
      "componentType": 5126,
      "count": 4547,
      "max": [
        1.0,
        1.0,
        1.0
      ],
      "min": [
        -1.0,
        -1.0,
        -1.0
      ],
      "type": "VEC3"
    },
    {
      "bufferView": 1,
      "byteOffset": 41800,
      "componentType": 5126,
      "count": 4547,
      "max": [
        0.9943869709968567,
        0.9965819716453552
      ],
      "min": [
        -0.020044999197125435,
        0.0004820000031031668
      ],
      "type": "VEC2"
    },
    {
      "bufferView": 0,
      "byteOffset": 36420,
      "componentType": 5125,
      "count": 9675,
      "type": "SCALAR"
    },
    {
      "bufferView": 2,
      "byteOffset": 234528,
      "componentType": 5126,
      "count": 3931,
      "max": [
        0.029363999143242836,
        0.02988000027835369,
        0.04396900162100792
      ],
      "min": [
        -0.05213800072669983,
        -0.050971999764442444,
        0.006283999886363745
      ],
      "type": "VEC3"
    },
    {
      "bufferView": 2,
      "byteOffset": 281700,
      "componentType": 5126,
      "count": 3931,
      "max": [
        1.0,
        1.0,
        1.0
      ],
      "min": [
        -1.0,
        -1.0,
        -1.0
      ],
      "type": "VEC3"
    },
    {
      "bufferView": 1,
      "byteOffset": 78176,
      "componentType": 5126,
      "count": 3931,
      "max": [
        0.7768549919128418,
        0.8308699727058411
      ],
      "min": [
        0.015752999112010002,
        0.3332659900188446
      ],
      "type": "VEC2"
    },
    {
      "bufferView": 0,
      "byteOffset": 75120,
      "componentType": 5125,
      "count": 7653,
      "type": "SCALAR"
    },
    {
      "bufferView": 2,
      "byteOffset": 328872,
      "componentType": 5126,
      "count": 2177,
      "max": [
        0.0053159999661147594,
        -0.05705900117754936,
        0.08523699641227722
      ],
      "min": [
        -0.021112000569701195,
        -0.11421900242567062,
        0.0017890000017359853
      ],
      "type": "VEC3"
    },
    {
      "bufferView": 2,
      "byteOffset": 354996,
      "componentType": 5126,
      "count": 2177,
      "max": [
        1.0,
        1.0,
        1.0
      ],
      "min": [
        -1.0,
        -1.0,
        -1.0
      ],
      "type": "VEC3"
    },
    {
      "bufferView": 1,
      "byteOffset": 109624,
      "componentType": 5126,
      "count": 2177,
      "max": [
        0.7783200144767761,
        0.6626420021057129
      ],
      "min": [
        0.0018339999951422215,
        0.13494500517845154
      ],
      "type": "VEC2"
    },
    {
      "bufferView": 0,
      "byteOffset": 105732,
      "componentType": 5125,
      "count": 3885,
      "type": "SCALAR"
    },
    {
      "bufferView": 2,
      "byteOffset": 381120,
      "componentType": 5126,
      "count": 5574,
      "max": [
        0.09598299860954285,
        0.11477500200271606,
        0.037710998207330704
      ],
      "min": [
        -0.13779400289058685,
        -0.15631699562072754,
        0.00019200000679120421
      ],
      "type": "VEC3"
    },
    {
      "bufferView": 2,
      "byteOffset": 448008,
      "componentType": 5126,
      "count": 5574,
      "max": [
        1.0,
        1.0,
        0.9999997615814209
      ],
      "min": [
        -1.0,
        -1.0,
        -1.0
      ],
      "type": "VEC3"
    },
    {
      "bufferView": 1,
      "byteOffset": 127040,
      "componentType": 5126,
      "count": 5574,
      "max": [
        0.9958189725875854,
        0.9980469942092896
      ],
      "min": [
        0.0005579999997280538,
        0.0004039999912492931
      ],
      "type": "VEC2"
    },
    {
      "bufferView": 0,
      "byteOffset": 121272,
      "componentType": 5125,
      "count": 9888,
      "type": "SCALAR"
    },
    {
      "bufferView": 2,
      "byteOffset": 514896,
      "componentType": 5126,
      "count": 3423,
      "max": [
        0.06359300017356873,
        0.07179799675941467,
        0.03582499921321869
      ],
      "min": [
        -0.10403399914503098,
        -0.11421900242567062,
        0.00019200000679120421
      ],
      "type": "VEC3"
    },
    {
      "bufferView": 2,
      "byteOffset": 555972,
      "componentType": 5126,
      "count": 3423,
      "max": [
        1.0,
        1.0,
        0.9999996423721313
      ],
      "min": [
        -1.0,
        -1.0,
        -1.0
      ],
      "type": "VEC3"
    },
    {
      "bufferView": 1,
      "byteOffset": 171632,
      "componentType": 5126,
      "count": 3423,
      "max": [
        0.9972630143165588,
        0.9980469942092896
      ],
      "min": [
        0.0008510000188834965,
        0.0019529999699443579
      ],
      "type": "VEC2"
    },
    {
      "bufferView": 0,
      "byteOffset": 160824,
      "componentType": 5125,
      "count": 7593,
      "type": "SCALAR"
    }
  ],
  "asset": {
    "extras": {
      "author": "QuintusHortensiusHortalus (https://sketchfab.com/QuintusHortensiusHortalus)",
      "license": "CC-BY-4.0 (http://creativecommons.org/licenses/by/4.0/)",
      "source": "https://sketchfab.com/3d-models/city-model-for-hannover-c9c365fe37ff425fa31dec79bc3b8a67",
      "title": "City Model for Hannover"
    },
    "generator": "Sketchfab-14.10.0",
    "version": "2.0"
  },
  "bufferViews": [
    {
      "buffer": 0,
      "byteLength": 191196,
      "name": "floatBufferViews",
      "target": 34963
    },
    {
      "buffer": 0,
      "byteLength": 199016,
      "byteOffset": 191196,
      "byteStride": 8,
      "name": "floatBufferViews",
      "target": 34962
    },
    {
      "buffer": 0,
      "byteLength": 597048,
      "byteOffset": 390212,
      "byteStride": 12,
      "name": "floatBufferViews",
      "target": 34962
    }
  ],
  "buffers": [
    {
      "byteLength": 987260,
      "uri": "scene.bin"
    }
  ],
  "images": [
    {
      "uri": "textures/hanover_diffuse_baseColor.png"
    }
  ],
  "materials": [
    {
      "name": "hanover_diffuse",
      "pbrMetallicRoughness": {
        "baseColorTexture": {
          "index": 0
        },
        "metallicFactor": 0.0
      }
    }
  ],
  "meshes": [
    {
      "name": "Object_0",
      "primitives": [
        {
          "attributes": {
            "NORMAL": 1,
            "POSITION": 0,
            "TEXCOORD_0": 2
          },
          "indices": 3,
          "material": 0,
          "mode": 4
        }
      ]
    },
    {
      "name": "Object_1",
      "primitives": [
        {
          "attributes": {
            "NORMAL": 5,
            "POSITION": 4,
            "TEXCOORD_0": 6
          },
          "indices": 7,
          "material": 0,
          "mode": 4
        }
      ]
    },
    {
      "name": "Object_2",
      "primitives": [
        {
          "attributes": {
            "NORMAL": 9,
            "POSITION": 8,
            "TEXCOORD_0": 10
          },
          "indices": 11,
          "material": 0,
          "mode": 4
        }
      ]
    },
    {
      "name": "Object_3",
      "primitives": [
        {
          "attributes": {
            "NORMAL": 13,
            "POSITION": 12,
            "TEXCOORD_0": 14
          },
          "indices": 15,
          "material": 0,
          "mode": 4
        }
      ]
    },
    {
      "name": "Object_4",
      "primitives": [
        {
          "attributes": {
            "NORMAL": 17,
            "POSITION": 16,
            "TEXCOORD_0": 18
          },
          "indices": 19,
          "material": 0,
          "mode": 4
        }
      ]
    },
    {
      "name": "Object_5",
      "primitives": [
        {
          "attributes": {
            "NORMAL": 21,
            "POSITION": 20,
            "TEXCOORD_0": 22
          },
          "indices": 23,
          "material": 0,
          "mode": 4
        }
      ]
    }
  ],
  "nodes": [
    {
      "children": [
        1
      ],
      "matrix": [
        -0.02722952514886856,
        2.2196227067558023e-16,
        -0.9996291995048523,
        0.0,
        -0.9996291995048523,
        -6.046169153976724e-18,
        0.02722952514886856,
        0.0,
        0.0,
        1.0,
        2.220446049250313e-16,
        0.0,
        0.0,
        0.0,
        0.0,
        1.0
      ],
      "name": "Sketchfab_model"
    },
    {
      "children": [
        2,
        3,
        4,
        5,
        6,
        7
      ],
      "name": "city model hannover.obj.cleaner.materialmerger.gles"
    },
    {
      "mesh": 0,
      "name": "Object_2"
    },
    {
      "mesh": 1,
      "name": "Object_3"
    },
    {
      "mesh": 2,
      "name": "Object_4"
    },
    {
      "mesh": 3,
      "name": "Object_5"
    },
    {
      "mesh": 4,
      "name": "Object_6"
    },
    {
      "mesh": 5,
      "name": "Object_7"
    }
  ],
  "samplers": [
    {
      "magFilter": 9729,
      "minFilter": 9987,
      "wrapS": 10497,
      "wrapT": 10497
    }
  ],
  "scene": 0,
  "scenes": [
    {
      "name": "Sketchfab_Scene",
      "nodes": [
        0
      ]
    }
  ],
  "textures": [
    {
      "sampler": 0,
      "source": 0
    }
  ]
}
